<?xml version="1.0" encoding="UTF-8" standalone="no"?>
<!DOCTYPE svg PUBLIC "-//W3C//DTD SVG 1.1//EN" "http://www.w3.org/Graphics/SVG/1.1/DTD/svg11.dtd">
<svg width="100%" height="100%" viewBox="0 0 160 161" version="1.1" xmlns="http://www.w3.org/2000/svg" xmlns:xlink="http://www.w3.org/1999/xlink" xml:space="preserve" xmlns:serif="http://www.serif.com/" style="fill-rule:evenodd;clip-rule:evenodd;stroke-linejoin:round;stroke-miterlimit:2;">
    <g transform="matrix(1,0,0,1,-640,-3979)">
        <g transform="matrix(1.30957,0,0,1.33333,1865.74,2219.07)">
            <g id="button-save" transform="matrix(0.113127,0,0,1.19082,-935.987,1120.12)">
                <rect x="0" y="167.847" width="1080" height="100.771" style="fill:none;"/>
                <g transform="matrix(6.75,0,0,0.62982,-4320,-2338.25)">
                    <path d="M773,4029.07C773,4028.28 772.684,4027.51 772.121,4026.95L752.121,4006.95C751.559,4006.39 750.796,4006.07 750,4006.07L670,4006.07C668.343,4006.07 667,4007.42 667,4009.07L667,4109.07C667,4110.73 668.343,4112.07 670,4112.07L770,4112.07C771.657,4112.07 773,4110.73 773,4109.07L773,4029.07ZM743,4012.07L743,4044.07C743,4045.73 741.657,4047.07 740,4047.07L690,4047.07C688.343,4047.07 687,4045.73 687,4044.07L687,4012.07L673,4012.07C673,4012.07 673,4106.07 673,4106.07L682,4106.07L682,4059.07C682,4057.42 683.343,4056.07 685,4056.07L755,4056.07C756.657,4056.07 758,4057.42 758,4059.07L758,4106.07L767,4106.07L767,4030.32L748.757,4012.07L743,4012.07ZM688,4062.07L752,4062.07C752,4062.07 752,4106.07 752,4106.07C752,4106.07 688,4106.07 688,4106.07L688,4062.07ZM718,4014.57L734.5,4014.57C734.5,4014.57 734.5,4038.57 734.5,4038.57C734.5,4038.57 718,4038.57 718,4038.57L718,4014.57Z" style="fill:rgb(77,77,77);"/>
                </g>
            </g>
        </g>
    </g>
</svg>
