<?xml version="1.0" encoding="UTF-8" standalone="no"?>
<!DOCTYPE svg PUBLIC "-//W3C//DTD SVG 1.1//EN" "http://www.w3.org/Graphics/SVG/1.1/DTD/svg11.dtd">
<svg width="100%" height="100%" viewBox="0 0 160 161" version="1.1" xmlns="http://www.w3.org/2000/svg" xmlns:xlink="http://www.w3.org/1999/xlink" xml:space="preserve" xmlns:serif="http://www.serif.com/" style="fill-rule:evenodd;clip-rule:evenodd;stroke-linejoin:round;stroke-miterlimit:2;">
    <g transform="matrix(1,0,0,1,-480,-3979)">
        <g transform="matrix(1.30957,0,0,1.33333,1865.74,2219.07)">
            <g id="button-plus" transform="matrix(0.113127,0,0,1.19082,-1058.16,1120.12)">
                <rect x="0" y="167.847" width="1080" height="100.771" style="fill:none;"/>
                <g transform="matrix(8.4375,0,0,0.787275,-7897.5,-1104.39)">
                    <path d="M1010,1670L1010,1640L990,1640L990,1670L960,1670L960,1690L990,1690L990,1720L1010,1720L1010,1690L1040,1690L1040,1670L1010,1670Z" style="fill:rgb(77,77,77);"/>
                </g>
                <g transform="matrix(8.4375,0,0,0.787275,-7897.5,-1104.39)">
                    <path d="M1012.4,1667.6L1012.4,1640C1012.4,1638.67 1011.33,1637.6 1010,1637.6L990,1637.6C988.675,1637.6 987.6,1638.67 987.6,1640L987.6,1667.6C987.6,1667.6 960,1667.6 960,1667.6C958.675,1667.6 957.6,1668.67 957.6,1670L957.6,1690C957.6,1691.33 958.675,1692.4 960,1692.4L987.6,1692.4C987.6,1692.4 987.6,1720 987.6,1720C987.6,1721.33 988.675,1722.4 990,1722.4L1010,1722.4C1011.33,1722.4 1012.4,1721.33 1012.4,1720L1012.4,1692.4C1012.4,1692.4 1040,1692.4 1040,1692.4C1041.33,1692.4 1042.4,1691.33 1042.4,1690L1042.4,1670C1042.4,1668.67 1041.33,1667.6 1040,1667.6L1012.4,1667.6Z" style="fill:rgb(77,77,77);"/>
                </g>
            </g>
        </g>
    </g>
</svg>
