<?xml version="1.0" encoding="UTF-8" standalone="no"?>
<!DOCTYPE svg PUBLIC "-//W3C//DTD SVG 1.1//EN" "http://www.w3.org/Graphics/SVG/1.1/DTD/svg11.dtd">
<svg width="100%" height="100%" viewBox="0 0 160 161" version="1.1" xmlns="http://www.w3.org/2000/svg" xmlns:xlink="http://www.w3.org/1999/xlink" xml:space="preserve" xmlns:serif="http://www.serif.com/" style="fill-rule:evenodd;clip-rule:evenodd;stroke-linejoin:round;stroke-miterlimit:2;">
    <g transform="matrix(1,0,0,1,-160,-3819)">
        <g transform="matrix(1.30957,0,0,1.33333,1865.74,2219.07)">
            <g id="button-dropdown" transform="matrix(0.810303,0,0,0.920114,-1496.99,-2286.38)">
                <rect x="240" y="3789.07" width="150.78" height="130.419" style="fill:none;"/>
                <g transform="matrix(0.942373,0,0,0.815116,38.7315,971.504)">
                    <path d="M291.455,3588.77C292.626,3589.94 294.526,3589.94 295.698,3588.77L333.198,3551.27C334.056,3550.41 334.312,3549.12 333.848,3548C333.384,3546.88 332.29,3546.15 331.076,3546.15L256.076,3546.15C254.863,3546.15 253.769,3546.88 253.305,3548C252.84,3549.12 253.097,3550.41 253.955,3551.27L291.455,3588.77ZM295.698,3484.53C294.526,3483.35 292.626,3483.35 291.455,3484.53L253.955,3522.03C253.097,3522.88 252.84,3524.17 253.305,3525.29C253.769,3526.41 254.863,3527.15 256.076,3527.15L331.076,3527.15C332.29,3527.15 333.384,3526.41 333.848,3525.29C334.312,3524.17 334.056,3522.88 333.198,3522.03L295.698,3484.53Z" style="fill:rgb(77,77,77);"/>
                </g>
            </g>
        </g>
    </g>
</svg>
