<?xml version="1.0" encoding="UTF-8" standalone="no"?>
<!DOCTYPE svg PUBLIC "-//W3C//DTD SVG 1.1//EN" "http://www.w3.org/Graphics/SVG/1.1/DTD/svg11.dtd">
<svg width="100%" height="100%" viewBox="0 0 160 161" version="1.1" xmlns="http://www.w3.org/2000/svg" xmlns:xlink="http://www.w3.org/1999/xlink" xml:space="preserve" xmlns:serif="http://www.serif.com/" style="fill-rule:evenodd;clip-rule:evenodd;stroke-linejoin:round;stroke-miterlimit:2;">
    <g transform="matrix(1,0,0,1,-160,-3979)">
        <g transform="matrix(1.30957,0,0,1.33333,1865.74,2219.07)">
            <g id="button-reset" transform="matrix(0.763608,0,0,0.75,-1470.51,-1649.3)">
                <rect x="220" y="3959.07" width="160" height="160" style="fill:none;"/>
                <g transform="matrix(1,0,0,1,60,-20)">
                    <path d="M209.929,4031.95L198.281,4027.59C197.269,4027.21 196.131,4027.41 195.303,4028.1C194.474,4028.79 194.082,4029.88 194.278,4030.94L199.549,4059.62C199.74,4060.65 200.46,4061.51 201.447,4061.88C202.433,4062.25 203.542,4062.08 204.367,4061.42L227.187,4043.28C228.033,4042.6 228.452,4041.53 228.283,4040.46C228.115,4039.39 227.385,4038.5 226.373,4038.12L216.05,4034.25C222.259,4028.26 230.702,4024.57 240,4024.57C259.041,4024.57 274.5,4040.03 274.5,4059.07C274.5,4078.11 259.041,4093.57 240,4093.57C238.344,4093.57 237,4094.92 237,4096.57C237,4098.23 238.344,4099.57 240,4099.57C262.353,4099.57 280.5,4081.43 280.5,4059.07C280.5,4036.72 262.353,4018.57 240,4018.57C228.073,4018.57 217.343,4023.74 209.929,4031.95Z" style="fill:rgb(77,77,77);"/>
                </g>
            </g>
        </g>
    </g>
</svg>
