<?xml version="1.0" encoding="UTF-8" standalone="no"?>
<!DOCTYPE svg PUBLIC "-//W3C//DTD SVG 1.1//EN" "http://www.w3.org/Graphics/SVG/1.1/DTD/svg11.dtd">
<svg width="100%" height="100%" viewBox="0 0 160 161" version="1.1" xmlns="http://www.w3.org/2000/svg" xmlns:xlink="http://www.w3.org/1999/xlink" xml:space="preserve" xmlns:serif="http://www.serif.com/" style="fill-rule:evenodd;clip-rule:evenodd;stroke-linejoin:round;stroke-miterlimit:2;">
    <g transform="matrix(1,0,0,1,0,-3819)">
        <g transform="matrix(1.30957,0,0,1.33333,1865.74,2219.07)">
            <g id="button-edit-mode" transform="matrix(0.113127,0,0,1.19082,-1424.7,1000.12)">
                <rect x="0" y="167.847" width="1080" height="100.771" style="fill:none;"/>
                <g transform="matrix(6.75,0,0,0.62982,-156.094,-2197.72)">
                    <path d="M70.871,3855.7C70.136,3854.97 69.073,3854.66 68.061,3854.9C67.049,3855.14 66.233,3855.89 65.904,3856.87L59.654,3875.62C59.295,3876.7 59.575,3877.89 60.379,3878.69C61.182,3879.5 62.371,3879.78 63.449,3879.42L82.199,3873.17C83.185,3872.84 83.931,3872.02 84.17,3871.01C84.409,3870 84.107,3868.94 83.371,3868.2L70.871,3855.7ZM118.237,3808.34C117.066,3807.16 115.166,3807.16 113.995,3808.34L75.599,3846.73C74.428,3847.9 74.428,3849.8 75.599,3850.97L88.099,3863.47C89.271,3864.64 91.17,3864.64 92.342,3863.47L130.737,3825.08C131.909,3823.91 131.909,3822.01 130.737,3820.84L118.237,3808.34ZM133.371,3793.2C132.2,3792.03 130.3,3792.03 129.129,3793.2L122.879,3799.45C121.707,3800.62 121.707,3802.52 122.879,3803.69L135.379,3816.19C136.55,3817.37 138.45,3817.37 139.621,3816.19L145.871,3809.94C147.043,3808.77 147.043,3806.87 145.871,3805.7L133.371,3793.2Z" style="fill:rgb(77,77,77);"/>
                </g>
            </g>
        </g>
    </g>
</svg>
